<?xml version="1.0" standalone="no"?><!DOCTYPE svg PUBLIC "-//W3C//DTD SVG 1.1//EN" "http://www.w3.org/Graphics/SVG/1.1/DTD/svg11.dtd"><svg t="1684375672576" class="icon" viewBox="0 0 1024 1024" version="1.1" xmlns="http://www.w3.org/2000/svg" p-id="1007" xmlns:xlink="http://www.w3.org/1999/xlink" width="200" height="200"><path d="M490.5 957.6H127.6C93.6 957.6 66 930 66 896V127.6c0-34 27.6-61.6 61.6-61.6h769c34 0 61.6 27.6 61.6 61.6v256.2c0 17.7-14.3 32-32 32s-32-14.3-32-32V130H130v763.6h360.5c17.7 0 32 14.3 32 32s-14.4 32-32 32z" p-id="1008"></path><path d="M784.9 343.1H239.1c-17.7 0-32-14.3-32-32s14.3-32 32-32H785c17.7 0 32 14.3 32 32-0.1 17.7-14.4 32-32.1 32zM421.6 544.1H239.1c-17.7 0-32-14.3-32-32s14.3-32 32-32h182.5c17.7 0 32 14.3 32 32s-14.3 32-32 32zM901.9 947.7L773.2 788.1c-11.1-13.8-9-33.9 4.8-45 13.8-11.1 33.9-9 45 4.8l128.8 159.5c11.1 13.8 9 33.9-4.8 45-13.8 11.2-34 9-45.1-4.7zM359.6 751.9H239.1c-17.7 0-32-14.3-32-32s14.3-32 32-32h120.6c17.7 0 32 14.3 32 32-0.1 17.7-14.4 32-32.1 32z" p-id="1009"></path><path d="M683 816.1c-110.2 0-199.9-89.7-199.9-199.9S572.8 416.3 683 416.3 882.9 506 882.9 616.2 793.2 816.1 683 816.1z m0-335.9c-75 0-135.9 61-135.9 135.9s60.9 136 135.9 136 135.9-61 135.9-135.9-61-136-135.9-136z" p-id="1010"></path></svg>
