<?xml version="1.0" standalone="no"?><!DOCTYPE svg PUBLIC "-//W3C//DTD SVG 1.1//EN" "http://www.w3.org/Graphics/SVG/1.1/DTD/svg11.dtd"><svg t="1679548629765" class="icon" viewBox="0 0 1024 1024" version="1.1" xmlns="http://www.w3.org/2000/svg" p-id="8160" xmlns:xlink="http://www.w3.org/1999/xlink" width="200" height="200"><path d="M27.903952 532.80401s-0.999992 0.999992-2.099983 0.999992c-29.099762 25.999788-31.199745 69.699431-6.199949 98.899193l237.298063 271.597782c32.299736 36.399703 78.099362 57.199533 125.898972 57.199533h355.897094l62.399491 62.399491 220.598199-215.398242-158.098709-157.098717C797.997665 586.903568 701.198455 565.003747 613.799169 595.203501l-34.29972 12.499898H363.001216c-37.499694 0.999992-66.599456 32.299736-65.599464 69.699431 3.099975 37.499694 33.299728 66.599456 70.799422 65.599464h127.998955c12.499898 2.099983 21.899821 11.399907 22.899813 22.899813 2.099983 14.599881-8.299932 27.099779-22.899813 29.099763h-127.998955c-65.599464 0-119.699023-50.999584-122.798997-116.599049v-2.099982L126.703146 542.103934c-24.899797-29.099762-68.699439-33.299728-98.799194-9.299924zM234.502266 298.90592c-14.599881-43.499645-11.399907-90.199264 8.999926-131.298928 20.499833-41.199664 55.699545-71.899413 99.19919-86.499294s90.199264-11.399907 131.298928 8.999926c41.199664 20.499833 71.899413 55.699545 86.499294 99.19919 14.599881 43.499645 11.399907 90.199264-8.999926 131.298929s-55.699545 71.899413-99.199191 86.499293-90.199264 11.399907-131.298928-8.999926c-41.099664-20.499833-71.899413-55.699545-86.499293-99.19919m-68.199444 22.899813c42.999649 127.798957 181.29852 196.498396 308.997478 153.498747s196.498396-181.29852 153.498746-308.997478-181.198521-196.498396-308.997477-153.498747-196.498396 181.29852-153.498747 308.997478z" p-id="8161"></path><path d="M866.797103 477.104465c-8.799928 17.799855-30.399752 25.099795-48.199606 16.199868L598.199296 383.805227c-17.799855-8.799928-25.099795-30.399752-16.199867-48.199607 8.799928-17.799855 30.399752-25.099795 48.199606-16.199868l220.398201 109.499106c8.899927 4.499963 15.099877 12.099901 18.099852 20.799831s2.49998 18.499849-1.899985 27.399776z" p-id="8162"></path></svg>