<?xml version="1.0" standalone="no"?><!DOCTYPE svg PUBLIC "-//W3C//DTD SVG 1.1//EN" "http://www.w3.org/Graphics/SVG/1.1/DTD/svg11.dtd"><svg t="1679548344923" class="icon" viewBox="0 0 1024 1024" version="1.1" xmlns="http://www.w3.org/2000/svg" p-id="6316" xmlns:xlink="http://www.w3.org/1999/xlink" width="200" height="200"><path d="M593.4 867H270.8c-19.6 0-19.6-29.6 0-29.6h146.6v-96.2H14.8A14.8 14.8 0 0 1 0 726.4V171.6a14.8 14.8 0 0 1 14.8-14.8h834.6a14.8 14.8 0 0 1 14.8 14.8v154c0 19.6-29.6 19.6-29.6 0V186.4h-805v525.2h491.8c19.6 0 19.6 29.6 0 29.6H447v96.2h146.4c19.6 0 19.6 29.6 0 29.6z m405.2-4.2l-214-210.6a220.4 220.4 0 0 1-145.4 56.2c-121 1.6-222.4-96.2-223.4-220s97.4-222.8 219.6-223.8 222.4 96.8 223.4 220A221 221 0 0 1 805.2 631l214 210.6c14.2 13.8-6.6 34.8-20.6 21.2zM635.8 294.2a192.2 192.2 0 1 0 193.6 190.6c-0.8-106.6-88.8-191.8-193.6-190.6z" fill="#3A3E49" p-id="6317"></path></svg>